# xmcd
#
# Track frame offsets:
#	150
#	14336
#	25875
#	39107
#	48515
#	63440
#	78922
#	95714
#	108911
#	127396
#	141380
#	167890
#	184988
#	201682
#	217819
#	240511
#	253276
#	263499
#	282151
#	297417
#
# Disc length: 4196 seconds
#
# Revision: 0
# Processed by: cddbd v1.5.2PL0 Copyright (c) Steve Scherf et al.
# Submitted via: EasyCDDAExtractor 10.2.0.1
#
DISCID=32106214
DTITLE=Various Artist - Circuit Rider Records Vol. 44
DYEAR=2000
DGENRE=Gospel
TTITLE0=Gina White - Covered By Grace
TTITLE1=Jerry Workman - Everybody In Heaven
TTITLE2=Shirley Berry - Ther Is A Source
TTITLE3=Ted Cook - There Won't Be Time To Say Goodbye
TTITLE4=Brad Mount - I Shall Arise
TTITLE5=Julia - I Die Unto Myself
TTITLE6=The Callaways - Lord Make Me A Blessing
TTITLE7=Paula Borden - God Brought Daddy To His Knees
TTITLE8=Casey Rivers - I'm Not Homeless
TTITLE9=The Cordells - Jenny Lou Brown
TTITLE10=Monnie Pilgrim - Calvary Is The Reason Why
TTITLE11=Jasper - The Caller
TTITLE12=Stella Smith - Calvary Is The Reason Why
TTITLE13=Paul Southerland - One And One Make One
TTITLE14=Karli Bonne - Witness
TTITLE15=The Staffords - He Died For Me
TTITLE16=The Kings - He's Alive And Still Lives Today
TTITLE17=Steve White - I Don't Wanna Go Alone
TTITLE18=Travis Lewis - Cultivating Love
TTITLE19=Bob Mayfield - When I Looked At Calvary
EXTD=
EXTT0=
EXTT1=
EXTT2=
EXTT3=
EXTT4=
EXTT5=
EXTT6=
EXTT7=
EXTT8=
EXTT9=
EXTT10=
EXTT11=
EXTT12=
EXTT13=
EXTT14=
EXTT15=
EXTT16=
EXTT17=
EXTT18=
EXTT19=
PLAYORDER=
